<?xml version="1.0" standalone="no"?><!DOCTYPE svg PUBLIC "-//W3C//DTD SVG 1.1//EN" "http://www.w3.org/Graphics/SVG/1.1/DTD/svg11.dtd"><svg t="1611813395524" class="icon" viewBox="0 0 1024 1024" version="1.1" xmlns="http://www.w3.org/2000/svg" p-id="3460" xmlns:xlink="http://www.w3.org/1999/xlink" width="400" height="400"><defs><style type="text/css"></style></defs><path d="M952.96 897.92v-314.88a64 64 0 0 0-64-64h-250.88V317.76a64 64 0 0 0-64-64h-20.8a204.8 204.8 0 0 0-151.04-154.24V48.64a48.64 48.64 0 0 0-96 0v51.84A204.8 204.8 0 0 0 154.56 256h-20.8a64 64 0 0 0-64 64v577.92a64 64 0 0 0 0 126.08h883.2a64 64 0 0 0 0-126.08z m-540.8-316.16H286.08a32 32 0 1 1 0-64h126.08a32 32 0 0 1 0 64z m416 316.16h-158.72v-64a64 64 0 0 1 64-64h32a64 64 0 0 1 64 64z" p-id="3461"></path></svg>