<?xml version="1.0" standalone="no"?><!DOCTYPE svg PUBLIC "-//W3C//DTD SVG 1.1//EN" "http://www.w3.org/Graphics/SVG/1.1/DTD/svg11.dtd"><svg t="1611813292548" class="icon" viewBox="0 0 1024 1024" version="1.1" xmlns="http://www.w3.org/2000/svg" p-id="2701" xmlns:xlink="http://www.w3.org/1999/xlink" width="400" height="400"><defs><style type="text/css"></style></defs><path d="M338.3 899.6H233.7c-60.5 0-109.7-49.2-109.7-109.7V234.1c0-60.5 49.2-109.7 109.7-109.7H789c60.5 0 109.7 49.2 109.7 109.7v29.6c0 16.6 13.4 30 30 30s30-13.4 30-30v-29.6c0-93.6-76.1-169.7-169.7-169.7H233.7C140.1 64.4 64 140.5 64 234.1v555.7c0 93.6 76.1 169.7 169.7 169.7h104.6c16.6 0 30-13.4 30-30s-13.4-29.9-30-29.9zM221.2 324h-0.5c-16.6 0-30 13.4-30 30s13.4 30 30 30h0.5c16.6 0 30-13.4 30-30s-13.4-30-30-30z m100.7 0c-16.6 0-30 13.4-30 30s13.4 30 30 30H491c16.6 0 30-13.4 30-30s-13.4-30-30-30H321.9zM221.2 516h-0.5c-16.6 0-30 13.4-30 30s13.4 30 30 30h0.5c16.6 0 30-13.4 30-30s-13.4-30-30-30z m179.4 0h-78.8c-16.6 0-30 13.4-30 30s13.4 30 30 30h78.8c16.6 0 30-13.4 30-30s-13.4-30-30-30z m486.7 237.7c-21-21-45.1-37.8-71.3-49.9 37.5-30.4 61.4-76.8 61.4-128.6 0-91.3-74.3-165.6-165.6-165.6s-165.6 74.3-165.6 165.6c0 51.9 24 98.3 61.4 128.6-26.2 12.1-50.3 28.9-71.3 49.9-46.9 46.9-72.7 109.2-72.7 175.5 0 16.6 13.4 30 30 30s30-13.4 30-30C523.6 825.5 608 741 711.8 741S900 825.4 900 929.1c0 16.6 13.4 30 30 30s30-13.4 30-30c0-66.2-25.8-128.6-72.7-175.4zM711.8 469.5c58.2 0 105.6 47.4 105.6 105.6 0 58.2-47.4 105.6-105.6 105.6s-105.6-47.4-105.6-105.6c0-58.2 47.4-105.6 105.6-105.6z" p-id="2702"></path></svg>