<?xml version="1.0" standalone="no"?><!DOCTYPE svg PUBLIC "-//W3C//DTD SVG 1.1//EN" "http://www.w3.org/Graphics/SVG/1.1/DTD/svg11.dtd"><svg t="1611812772846" class="icon" viewBox="0 0 1024 1024" version="1.1" xmlns="http://www.w3.org/2000/svg" p-id="1279" xmlns:xlink="http://www.w3.org/1999/xlink" width="400" height="400"><defs><style type="text/css"></style></defs><path d="M962.56 352.9728a38.4 38.4 0 0 1 32.7168 28.8256 534.3232 534.3232 0 0 1 0.8192 256.1024 38.4 38.4 0 0 1-32.512 29.0304 114.688 114.688 0 0 0-85.9136 58.9312 125.8496 125.8496 0 0 0-5.632 110.0288 38.4 38.4 0 0 1-7.8848 41.6768 495.4112 495.4112 0 0 1-214.016 130.2528 38.4 38.4 0 0 1-42.2912-14.5408c-21.76-30.5664-55.552-48.7424-92.16-48.7424-37.2224 0-71.5264 18.7392-93.184 50.1248a38.4 38.4 0 0 1-42.0352 15.104 494.4384 494.4384 0 0 1-215.3984-127.0272 38.4 38.4 0 0 1-8.0896-42.3936 125.8496 125.8496 0 0 0-5.1712-111.2064 114.4832 114.4832 0 0 0-89.4976-59.392 38.4 38.4 0 0 1-33.7408-28.928A534.1184 534.1184 0 0 1 12.8 511.488c0-42.752 5.12-84.8896 15.0016-125.8496a38.4 38.4 0 0 1 33.4848-29.184 114.5856 114.5856 0 0 0 88.6784-59.2896 125.9008 125.9008 0 0 0 4.9152-111.9232 38.4 38.4 0 0 1 7.7312-42.496 494.7456 494.7456 0 0 1 214.528-128.512 38.4 38.4 0 0 1 42.1376 14.848c21.76 30.976 55.808 49.4592 92.7232 49.4592 36.864 0 70.9632-18.432 92.672-49.4592a38.4 38.4 0 0 1 42.1376-14.848 494.6432 494.6432 0 0 1 214.9376 128.8704 38.4 38.4 0 0 1 8.0896 41.6256 125.7984 125.7984 0 0 0 5.9904 109.1584c18.6368 33.4336 50.7392 54.784 86.7328 59.0336z m-153.8048-21.7088a202.24 202.24 0 0 1-18.4832-150.3744A417.8944 417.8944 0 0 0 649.216 95.744 188.5696 188.5696 0 0 1 512 155.392 188.5696 188.5696 0 0 1 374.784 95.744a417.9456 417.9456 0 0 0-140.288 84.48 202.3936 202.3936 0 0 1-17.408 154.368A192.1024 192.1024 0 0 1 97.28 427.8784a458.0864 458.0864 0 0 0 0.512 170.24 192 192 0 0 1 121.1392 93.696 202.24 202.24 0 0 1 17.7664 153.0368 417.5872 417.5872 0 0 0 140.8 83.456 188.672 188.672 0 0 1 138.1376-60.5696 188.416 188.416 0 0 1 136.2944 58.624 418.6624 418.6624 0 0 0 140.4928-86.0672 202.24 202.24 0 0 1 18.176-151.7568 192.1536 192.1536 0 0 1 115.9168-92.2624 457.9328 457.9328 0 0 0-0.512-172.3904 192.0512 192.0512 0 0 1-117.248-92.6208z" fill="#7E8392" p-id="1280"></path><path d="M446.3104 398.2336a131.328 131.328 0 1 0 131.328 227.4816 131.328 131.328 0 0 0-131.328-227.4816z m-38.4-66.5088a208.128 208.128 0 1 1 208.128 360.5504 208.128 208.128 0 0 1-208.128-360.5504z" fill="#80AEFC" p-id="1281"></path></svg>